<?xml version="1.0" encoding="UTF-8"?>
<svg version="1.1" xmlns="http://www.w3.org/2000/svg" width="2249" height="212">
<path d="M0 0 C7.59 0 15.18 0 23 0 C31.43451098 9.34069811 31.43451098 9.34069811 33.80859375 13.63671875 C36.8425093 18.86038703 40.3410071 23.4901295 44.125 28.1875 C45.28657317 29.66583639 46.44545601 31.14629083 47.6015625 32.62890625 C48.44702637 33.71196045 48.44702637 33.71196045 49.30957031 34.81689453 C53.9546809 40.81582273 58.46668717 46.91650261 63 53 C64.98 55.64 66.96 58.28 69 61 C69.33 40.87 69.66 20.74 70 0 C77.59 0 85.18 0 93 0 C93 34.65 93 69.3 93 105 C73 105 73 105 68.66015625 101.5546875 C67.72437501 100.06619719 66.83717457 98.54610112 66 97 C64.93247987 95.55232573 63.8473788 94.11746976 62.74609375 92.6953125 C61.64030167 91.1739986 60.537539 89.65047904 59.4375 88.125 C54.06192848 80.74675034 48.55054914 73.49508646 42.92211914 66.30834961 C38.83223523 61.08319543 34.820281 55.81022322 30.8671875 50.48046875 C28.96134325 47.94864637 26.97963947 45.47454934 25 43 C24.67 63.46 24.34 83.92 24 105 C16.08 105 8.16 105 0 105 C0 70.35 0 35.7 0 0 Z " fill="#2E3192" transform="translate(227,52)"/>
<path d="M0 0 C57.09 0 114.18 0 173 0 C173.0825 21.40875 173.165 42.8175 173.25 64.875 C173.28641602 71.60245605 173.32283203 78.32991211 173.36035156 85.26123047 C173.37841797 93.55883789 173.37841797 93.55883789 173.3817749 97.45925903 C173.38786573 100.14878165 173.40027764 102.83751745 173.42230225 105.52688599 C173.67409267 137.71676828 168.43490126 161.21889287 146.359375 185.85546875 C144 188 144 188 139 190 C135.7 185.38 132.4 180.76 129 176 C129.845625 175.01 130.69125 174.02 131.5625 173 C132.38621094 172.03126953 132.38621094 172.03126953 133.2265625 171.04296875 C134.36399935 169.73266154 135.523942 168.44136778 136.7109375 167.17578125 C154.70743496 147.75422177 155.28821562 124.49891758 155.4140625 99.54296875 C155.43280035 97.18499595 155.45237566 94.82702968 155.4727478 92.46907043 C155.5237986 86.30268216 155.56356821 80.1362722 155.60089111 73.9697876 C155.64110146 67.6614457 155.69211563 61.35319185 155.7421875 55.04492188 C155.838626 42.69667668 155.92313223 30.34838146 156 18 C155.26708048 18.0129051 154.53416096 18.0258102 153.77903175 18.03910637 C135.91731869 18.34874731 118.05614344 18.58017604 100.19231606 18.72537041 C91.55317223 18.79745957 82.91582334 18.89566947 74.27783203 19.05615234 C66.74575241 19.19602166 59.21497272 19.28608849 51.68163049 19.31723893 C47.69462023 19.33544184 43.71132732 19.37796405 39.72551346 19.48022079 C13.50824161 20.12748732 13.50824161 20.12748732 7.84393311 14.9307251 C5.06026157 11.55717982 3.49136116 8.09180919 2 4 C1.34 2.68 0.68 1.36 0 0 Z " fill="#2E3192" transform="translate(4,0)"/>
<path d="M0 0 C26.07 0 52.14 0 79 0 C79 7.26 79 14.52 79 22 C60.52 22 42.04 22 23 22 C23 28.6 23 35.2 23 42 C39.17 42 55.34 42 72 42 C72 48.93 72 55.86 72 63 C55.83 63 39.66 63 23 63 C23 69.93 23 76.86 23 84 C41.48 84 59.96 84 79 84 C79 90.93 79 97.86 79 105 C52.93 105 26.86 105 0 105 C0 70.35 0 35.7 0 0 Z " fill="#2E3192" transform="translate(570,52)"/>
<path d="M0 0 C5.50914222 5.47206582 5.50914222 5.47206582 7.5703125 8.19140625 C7.99183594 8.74376953 8.41335938 9.29613281 8.84765625 9.86523438 C9.26917969 10.42533203 9.69070313 10.98542969 10.125 11.5625 C10.55425781 12.12646484 10.98351563 12.69042969 11.42578125 13.27148438 C12.62153506 14.84436055 13.81097896 16.42202801 15 18 C15.53492569 18.55201584 16.06985138 19.10403168 16.62098694 19.67277527 C18.64712173 23.09208371 18.40686815 26.43311737 18.36889648 30.29418945 C18.37266296 31.12899338 18.37642944 31.9637973 18.38031006 32.82389832 C18.38674252 34.63648163 18.38641249 36.44909868 18.38012505 38.26168251 C18.37099718 41.1437731 18.38126252 44.02521528 18.39674377 46.90727234 C18.43676743 55.10166392 18.43806388 63.29600543 18.43579102 71.49047852 C18.43573948 76.50732514 18.45513334 81.52382705 18.48512459 86.54057884 C18.4958285 89.35601186 18.48388507 92.17075071 18.47129822 94.98616028 C18.5110771 115.0192966 23.42382202 131.72014478 37 147 C37.55429687 147.63679687 38.10859375 148.27359375 38.6796875 148.9296875 C49.98519299 161.10068623 67.10325986 168.36493172 83.5234375 169.3203125 C94.8648372 169.71310321 105.14074788 168.34191072 115.6640625 163.8671875 C118 163 118 163 122 163 C123.82304296 165.08475222 125.30062713 167.0215622 126.8125 169.3125 C127.23208984 169.90740234 127.65167969 170.50230469 128.08398438 171.11523438 C129.26953125 172.86328125 129.26953125 172.86328125 131 176 C130 179 130 179 128.0234375 180.24609375 C118.11515589 184.70335907 106.96227598 188.52934772 96 189 C94.93910156 189.0515625 93.87820312 189.103125 92.78515625 189.15625 C68.24001196 189.77438585 45.37428769 181.57683848 27.10546875 165.04296875 C11.18328446 149.87590834 1.21800552 129.15972897 -0.18126297 107.14865875 C-0.24272911 104.27720743 -0.24800738 101.41206192 -0.22705078 98.54003906 C-0.22748886 96.92807144 -0.22748886 96.92807144 -0.22793579 95.28353882 C-0.22655695 91.77748162 -0.21106455 88.27164447 -0.1953125 84.765625 C-0.19157722 82.31654985 -0.18873268 79.86747319 -0.18673706 77.418396 C-0.17914115 71.00695591 -0.15952773 64.59560803 -0.1373291 58.1842041 C-0.11678319 51.62802375 -0.10771672 45.07182834 -0.09765625 38.515625 C-0.07627773 25.67704425 -0.04258158 12.83852706 0 0 Z " fill="#2E3192" transform="translate(0,21)"/>
<path d="M0 0 C18.99121637 -1.94347268 18.99121637 -1.94347268 25.265625 2.109375 C27.37121203 4.68906772 29.18895873 7.28597407 30.875 10.15673828 C32.45425918 12.74428317 34.28714879 15.10115711 36.13500977 17.50097656 C37.66396647 19.48814428 39.16042524 21.49662311 40.65234375 23.51171875 C45.08933594 29.48009789 49.61342247 35.38208135 54.12939453 41.29077148 C59.12480527 47.83298777 64.06058502 54.41411336 69 61 C69.33 40.87 69.66 20.74 70 0 C77.59 0 85.18 0 93 0 C93 34.65 93 69.3 93 105 C77 105 77 105 72.39453125 101.0390625 C71.14663387 99.27120788 69.95411504 97.46327989 68.8125 95.625 C68.15507813 94.66980469 67.49765625 93.71460938 66.8203125 92.73046875 C65.47796294 90.77536387 64.15687518 88.80548343 62.85791016 86.82128906 C60.20012241 82.78536328 57.35118084 78.90024195 54.5 75 C53.44633554 73.53014791 52.392954 72.06009297 51.33984375 70.58984375 C47.67157541 65.51112679 43.87210808 60.53562475 40.0625 55.5625 C33.18714536 46.58729952 26.44320415 37.52444799 19.76171875 28.40429688 C16.63776033 24.14089021 13.5068665 19.88259897 10.375 15.625 C9.79476074 14.83399902 9.21452148 14.04299805 8.61669922 13.22802734 C6.33346706 10.12334333 4.05150257 7.06257478 1.6015625 4.0859375 C0 2 0 2 0 0 Z " fill="#2E3192" transform="translate(42,52)"/>
<path d="M0 0 C28.71 0 57.42 0 87 0 C87 7.26 87 14.52 87 22 C76.77 22 66.54 22 56 22 C56 49.39 56 76.78 56 105 C48.08 105 40.16 105 32 105 C32 77.61 32 50.22 32 22 C21.44 22 10.88 22 0 22 C0 14.74 0 7.48 0 0 Z " fill="#2E3192" transform="translate(370,52)"/>
<path d="M0 0 C28.71 0 57.42 0 87 0 C87 7.26 87 14.52 87 22 C76.44 22 65.88 22 55 22 C55 49.39 55 76.78 55 105 C47.41 105 39.82 105 32 105 C32 77.61 32 50.22 32 22 C21.44 22 10.88 22 0 22 C0 14.74 0 7.48 0 0 Z " fill="#2E3192" transform="translate(470,52)"/>
<path d="M0 0 C5.61 0 11.22 0 17 0 C22.79062526 6.30349669 22.79062526 6.30349669 24.18164062 9.14453125 C24.49077393 9.75635254 24.79990723 10.36817383 25.1184082 10.99853516 C25.4299585 11.61776855 25.74150879 12.23700195 26.0625 12.875 C26.7500498 14.11391902 27.44337867 15.34964933 28.14257812 16.58203125 C33 25.29143672 33 25.29143672 33 28 C33.66 28 34.32 28 35 28 C35.27513428 27.28884033 35.55026855 26.57768066 35.83374023 25.8449707 C37.91259537 20.77381749 40.44433664 15.99775075 43.0625 11.1875 C43.57876953 10.11306641 44.09503906 9.03863281 44.62695312 7.93164062 C46.34765625 4.85546875 46.34765625 4.85546875 51 0 C56.61 0 62.22 0 68 0 C68 23.1 68 46.2 68 70 C63.05 70 58.1 70 53 70 C52.505 49.21 52.505 49.21 52 28 C46.86274326 36.13319302 46.86274326 36.13319302 41.73901367 44.27490234 C41.09681885 45.28504395 40.45462402 46.29518555 39.79296875 47.3359375 C39.1383667 48.37282715 38.48376465 49.4097168 37.80932617 50.47802734 C36 53 36 53 33 55 C30.73839516 51.47704977 28.4780913 47.95326945 26.21899414 44.42871094 C25.45014661 43.22958796 24.68094282 42.03069334 23.91137695 40.83203125 C22.80586711 39.10997336 21.70163726 37.38710078 20.59765625 35.6640625 C19.93258057 34.62717285 19.26750488 33.5902832 18.58227539 32.52197266 C17 30 17 30 16 28 C15.67 41.86 15.34 55.72 15 70 C10.05 70 5.1 70 0 70 C0 46.9 0 23.8 0 0 Z " fill="#2E3192" transform="translate(1142,53)"/>
<path d="M0 0 C15 0 15 0 19.03515625 3.48828125 C20.09542782 5.06309392 21.10305166 6.67430904 22.0625 8.3125 C23.20161019 10.04656894 24.34228528 11.77961073 25.484375 13.51171875 C26.05349609 14.41196777 26.62261719 15.3122168 27.20898438 16.23974609 C30.2027319 20.85361053 33.51833889 25.22334472 36.8125 29.625 C37.98642381 31.22080512 39.15966609 32.81711196 40.33203125 34.4140625 C42.05211375 36.80523814 42.05211375 36.80523814 44 39 C44.33 26.13 44.66 13.26 45 0 C50.28 0 55.56 0 61 0 C61 23.1 61 46.2 61 70 C47 70 47 70 43 66.1875 C42.04560839 64.74462409 41.09505537 63.29868186 40.18310547 61.82861328 C38.23086073 58.81121479 36.05000051 55.96568859 33.90039062 53.0871582 C32.13892186 50.72737971 30.39711787 48.3544151 28.66015625 45.9765625 C24.47770693 40.28985979 20.23548453 34.64731271 16 29 C15.67 42.53 15.34 56.06 15 70 C10.05 70 5.1 70 0 70 C0 46.9 0 23.8 0 0 Z " fill="#2E3192" transform="translate(1818,140)"/>
<path d="M0 0 C15 0 15 0 19.03515625 3.48828125 C20.09542782 5.06309392 21.10305166 6.67430904 22.0625 8.3125 C23.20161019 10.04656894 24.34228528 11.77961073 25.484375 13.51171875 C26.05349609 14.41196777 26.62261719 15.3122168 27.20898438 16.23974609 C30.2027319 20.85361053 33.51833889 25.22334472 36.8125 29.625 C37.98642381 31.22080512 39.15966609 32.81711196 40.33203125 34.4140625 C42.05211375 36.80523814 42.05211375 36.80523814 44 39 C44.33 26.13 44.66 13.26 45 0 C50.28 0 55.56 0 61 0 C61 23.1 61 46.2 61 70 C47 70 47 70 43 66.1875 C42.04560839 64.74462409 41.09505537 63.29868186 40.18310547 61.82861328 C38.23086073 58.81121479 36.05000051 55.96568859 33.90039062 53.0871582 C32.13892186 50.72737971 30.39711787 48.3544151 28.66015625 45.9765625 C24.47770693 40.28985979 20.23548453 34.64731271 16 29 C15.67 42.53 15.34 56.06 15 70 C10.05 70 5.1 70 0 70 C0 46.9 0 23.8 0 0 Z " fill="#2E3192" transform="translate(846,140)"/>
<path d="M0 0 C15 0 15 0 19.03515625 3.48828125 C20.09542782 5.06309392 21.10305166 6.67430904 22.0625 8.3125 C23.20161019 10.04656894 24.34228528 11.77961073 25.484375 13.51171875 C26.05349609 14.41196777 26.62261719 15.3122168 27.20898438 16.23974609 C30.2027319 20.85361053 33.51833889 25.22334472 36.8125 29.625 C37.98642381 31.22080512 39.15966609 32.81711196 40.33203125 34.4140625 C42.05211375 36.80523814 42.05211375 36.80523814 44 39 C44.33 26.13 44.66 13.26 45 0 C50.28 0 55.56 0 61 0 C61 23.1 61 46.2 61 70 C47 70 47 70 43 66.1875 C42.04560839 64.74462409 41.09505537 63.29868186 40.18310547 61.82861328 C38.23086073 58.81121479 36.05000051 55.96568859 33.90039062 53.0871582 C32.13892186 50.72737971 30.39711787 48.3544151 28.66015625 45.9765625 C24.47770693 40.28985979 20.23548453 34.64731271 16 29 C15.67 42.53 15.34 56.06 15 70 C10.05 70 5.1 70 0 70 C0 46.9 0 23.8 0 0 Z " fill="#2E3192" transform="translate(1355,53)"/>
<path d="M0 0 C15 0 15 0 19.03515625 3.48828125 C20.09542782 5.06309392 21.10305166 6.67430904 22.0625 8.3125 C23.20161019 10.04656894 24.34228528 11.77961073 25.484375 13.51171875 C26.05349609 14.41196777 26.62261719 15.3122168 27.20898438 16.23974609 C30.2027319 20.85361053 33.51833889 25.22334472 36.8125 29.625 C37.98642381 31.22080512 39.15966609 32.81711196 40.33203125 34.4140625 C42.05211375 36.80523814 42.05211375 36.80523814 44 39 C44.33 26.13 44.66 13.26 45 0 C50.28 0 55.56 0 61 0 C61 23.1 61 46.2 61 70 C47 70 47 70 43 66.1875 C42.04560839 64.74462409 41.09505537 63.29868186 40.18310547 61.82861328 C38.23086073 58.81121479 36.05000051 55.96568859 33.90039062 53.0871582 C32.13892186 50.72737971 30.39711787 48.3544151 28.66015625 45.9765625 C24.47770693 40.28985979 20.23548453 34.64731271 16 29 C15.67 42.53 15.34 56.06 15 70 C10.05 70 5.1 70 0 70 C0 46.9 0 23.8 0 0 Z " fill="#2E3192" transform="translate(813,53)"/>
<path d="M0 0 C7.13619934 5.44523037 11.87167538 14.36200378 13.32421875 23.10546875 C14.76300487 34.55109315 12.59545985 44.18997637 5.921875 53.68359375 C-1.03748385 61.43378883 -9.73746967 65.71228942 -20.078125 66.68359375 C-31.20810689 66.81609353 -40.42438633 63.84026139 -49.03515625 56.73828125 C-57.10786379 48.61926754 -59.47402953 38.93320651 -59.44824219 27.75439453 C-59.30505834 21.67750365 -57.99418697 16.96705097 -55.078125 11.68359375 C-54.52125 10.65234375 -53.964375 9.62109375 -53.390625 8.55859375 C-39.74247848 -8.40937219 -18.39563197 -11.65287213 0 0 Z M-38.640625 15.65625 C-42.42509989 21.40822178 -43.92106373 26.73825349 -43.078125 33.68359375 C-41.28071023 40.43160233 -39.0089703 44.91978808 -33.078125 48.68359375 C-27.39420009 51.74786616 -22.34094504 52.38316945 -16.078125 50.68359375 C-9.71813696 47.38129227 -5.36290801 42.5076138 -3.078125 35.68359375 C-2.12511458 28.36979285 -2.99743642 21.90476622 -7.078125 15.68359375 C-10.57302065 11.86163567 -14.64095931 9.01435195 -19.8125 8.3125 C-27.87552138 8.13494642 -33.46863563 9.12661342 -38.640625 15.65625 Z " fill="#2E3192" transform="translate(2089.078125,145.31640625)"/>
<path d="M0 0 C7.13619934 5.44523037 11.87167538 14.36200378 13.32421875 23.10546875 C14.76300487 34.55109315 12.59545985 44.18997637 5.921875 53.68359375 C-1.03748385 61.43378883 -9.73746967 65.71228942 -20.078125 66.68359375 C-31.20810689 66.81609353 -40.42438633 63.84026139 -49.03515625 56.73828125 C-57.10786379 48.61926754 -59.47402953 38.93320651 -59.44824219 27.75439453 C-59.30505834 21.67750365 -57.99418697 16.96705097 -55.078125 11.68359375 C-54.52125 10.65234375 -53.964375 9.62109375 -53.390625 8.55859375 C-39.74247848 -8.40937219 -18.39563197 -11.65287213 0 0 Z M-38.640625 15.65625 C-42.42509989 21.40822178 -43.92106373 26.73825349 -43.078125 33.68359375 C-41.28071023 40.43160233 -39.0089703 44.91978808 -33.078125 48.68359375 C-27.39420009 51.74786616 -22.34094504 52.38316945 -16.078125 50.68359375 C-9.71813696 47.38129227 -5.36290801 42.5076138 -3.078125 35.68359375 C-2.12511458 28.36979285 -2.99743642 21.90476622 -7.078125 15.68359375 C-10.57302065 11.86163567 -14.64095931 9.01435195 -19.8125 8.3125 C-27.87552138 8.13494642 -33.46863563 9.12661342 -38.640625 15.65625 Z " fill="#2E3192" transform="translate(1950.078125,145.31640625)"/>
<path d="M0 0 C7.13619934 5.44523037 11.87167538 14.36200378 13.32421875 23.10546875 C14.76300487 34.55109315 12.59545985 44.18997637 5.921875 53.68359375 C-1.03748385 61.43378883 -9.73746967 65.71228942 -20.078125 66.68359375 C-31.20810689 66.81609353 -40.42438633 63.84026139 -49.03515625 56.73828125 C-57.10786379 48.61926754 -59.47402953 38.93320651 -59.44824219 27.75439453 C-59.30505834 21.67750365 -57.99418697 16.96705097 -55.078125 11.68359375 C-54.52125 10.65234375 -53.964375 9.62109375 -53.390625 8.55859375 C-39.74247848 -8.40937219 -18.39563197 -11.65287213 0 0 Z M-38.640625 15.65625 C-42.42509989 21.40822178 -43.92106373 26.73825349 -43.078125 33.68359375 C-41.28071023 40.43160233 -39.0089703 44.91978808 -33.078125 48.68359375 C-27.39420009 51.74786616 -22.34094504 52.38316945 -16.078125 50.68359375 C-9.71813696 47.38129227 -5.36290801 42.5076138 -3.078125 35.68359375 C-2.12511458 28.36979285 -2.99743642 21.90476622 -7.078125 15.68359375 C-10.57302065 11.86163567 -14.64095931 9.01435195 -19.8125 8.3125 C-27.87552138 8.13494642 -33.46863563 9.12661342 -38.640625 15.65625 Z " fill="#2E3192" transform="translate(1426.078125,145.31640625)"/>
<path d="M0 0 C2.88844781 1.86872422 5.0977001 4.07875279 7.4453125 6.58203125 C6.01894968 8.42404278 4.57886618 10.25543712 3.1328125 12.08203125 C2.33230469 13.10296875 1.53179688 14.12390625 0.70703125 15.17578125 C-0.41251953 16.366875 -0.41251953 16.366875 -1.5546875 17.58203125 C-5.56562977 17.58203125 -7.29797475 15.82102126 -10.5546875 13.58203125 C-16.07069201 11.74336308 -22.46327038 11.47190884 -27.98046875 13.453125 C-33.52552906 16.63814081 -36.01378289 20.60136101 -38.3046875 26.51953125 C-39.32675123 34.951557 -38.03434505 40.82712125 -33.3671875 47.89453125 C-29.05049539 52.01937038 -24.98931998 53.31643498 -19.1171875 53.95703125 C-14.57874479 53.47930044 -10.83425801 52.16218036 -6.5546875 50.58203125 C-6.0596875 45.63203125 -6.0596875 45.63203125 -5.5546875 40.58203125 C-10.5046875 40.58203125 -15.4546875 40.58203125 -20.5546875 40.58203125 C-20.5546875 35.96203125 -20.5546875 31.34203125 -20.5546875 26.58203125 C-10.6546875 26.58203125 -0.7546875 26.58203125 9.4453125 26.58203125 C9.65283299 31.03475474 9.83145708 35.47059377 9.93969727 39.92431641 C9.98480416 41.43596323 10.04611477 42.94722059 10.12426758 44.45751953 C10.75618826 56.988548 10.75618826 56.988548 7.56884766 60.86303711 C5.2366175 62.44092075 3.05644904 63.54027152 0.4453125 64.58203125 C-0.38476318 64.98808594 -1.21483887 65.39414063 -2.07006836 65.8125 C-11.47522526 70.36659761 -22.66883984 70.8077705 -32.5546875 67.58203125 C-42.89219267 63.58091856 -48.87304858 57.87289454 -53.609375 47.9140625 C-57.10240768 39.29695295 -56.90388989 27.48597793 -54.1171875 18.64453125 C-49.87567176 8.79762014 -41.67651861 1.51209647 -31.88671875 -2.515625 C-21.50821008 -5.32621762 -9.7123899 -4.45977087 0 0 Z " fill="#2E3192" transform="translate(2167.5546875,142.41796875)"/>
<path d="M0 0 C4.95 0 9.9 0 15 0 C15 8.91 15 17.82 15 27 C23.91 27 32.82 27 42 27 C42 18.09 42 9.18 42 0 C47.28 0 52.56 0 58 0 C58 23.1 58 46.2 58 70 C52.72 70 47.44 70 42 70 C42 60.76 42 51.52 42 42 C33.09 42 24.18 42 15 42 C15 51.24 15 60.48 15 70 C10.05 70 5.1 70 0 70 C0 46.9 0 23.8 0 0 Z " fill="#2E3192" transform="translate(1744,140)"/>
<path d="M0 0 C4.95 0 9.9 0 15 0 C15 8.91 15 17.82 15 27 C23.91 27 32.82 27 42 27 C42 18.09 42 9.18 42 0 C47.28 0 52.56 0 58 0 C58 23.1 58 46.2 58 70 C52.72 70 47.44 70 42 70 C42 60.76 42 51.52 42 42 C33.09 42 24.18 42 15 42 C15 51.24 15 60.48 15 70 C10.05 70 5.1 70 0 70 C0 46.9 0 23.8 0 0 Z " fill="#2E3192" transform="translate(1640,53)"/>
<path d="M0 0 C17.16 0 34.32 0 52 0 C52 4.62 52 9.24 52 14 C39.79 14 27.58 14 15 14 C15 18.62 15 23.24 15 28 C25.56 28 36.12 28 47 28 C47 32.62 47 37.24 47 42 C36.44 42 25.88 42 15 42 C15 46.62 15 51.24 15 56 C27.21 56 39.42 56 52 56 C52 60.62 52 65.24 52 70 C34.84 70 17.68 70 0 70 C0 46.9 0 23.8 0 0 Z " fill="#2E3192" transform="translate(1608,140)"/>
<path d="M0 0 C17.16 0 34.32 0 52 0 C52 4.62 52 9.24 52 14 C39.79 14 27.58 14 15 14 C15 18.62 15 23.24 15 28 C25.56 28 36.12 28 47 28 C47 32.62 47 37.24 47 42 C36.44 42 25.88 42 15 42 C15 46.62 15 51.24 15 56 C27.21 56 39.42 56 52 56 C52 60.62 52 65.24 52 70 C34.84 70 17.68 70 0 70 C0 46.9 0 23.8 0 0 Z " fill="#2E3192" transform="translate(1277,140)"/>
<path d="M0 0 C17.16 0 34.32 0 52 0 C52 4.62 52 9.24 52 14 C39.79 14 27.58 14 15 14 C15 18.62 15 23.24 15 28 C25.56 28 36.12 28 47 28 C47 32.62 47 37.24 47 42 C36.44 42 25.88 42 15 42 C15 46.62 15 51.24 15 56 C27.21 56 39.42 56 52 56 C52 60.62 52 65.24 52 70 C34.84 70 17.68 70 0 70 C0 46.9 0 23.8 0 0 Z " fill="#2E3192" transform="translate(1290,53)"/>
<path d="M0 0 C17.16 0 34.32 0 52 0 C52 4.62 52 9.24 52 14 C39.79 14 27.58 14 15 14 C15 18.62 15 23.24 15 28 C25.56 28 36.12 28 47 28 C47 32.62 47 37.24 47 42 C36.44 42 25.88 42 15 42 C15 46.62 15 51.24 15 56 C27.21 56 39.42 56 52 56 C52 60.62 52 65.24 52 70 C34.84 70 17.68 70 0 70 C0 46.9 0 23.8 0 0 Z " fill="#2E3192" transform="translate(1226,53)"/>
<path d="M0 0 C17.16 0 34.32 0 52 0 C52 4.62 52 9.24 52 14 C39.79 14 27.58 14 15 14 C15 18.62 15 23.24 15 28 C25.56 28 36.12 28 47 28 C47 32.62 47 37.24 47 42 C36.44 42 25.88 42 15 42 C15 46.62 15 51.24 15 56 C27.21 56 39.42 56 52 56 C52 60.62 52 65.24 52 70 C34.84 70 17.68 70 0 70 C0 46.9 0 23.8 0 0 Z " fill="#2E3192" transform="translate(1048,53)"/>
<path d="M0 0 C7.92 0 15.84 0 24 0 C24 34.65 24 69.3 24 105 C16.08 105 8.16 105 0 105 C0 70.35 0 35.7 0 0 Z " fill="#2E3192" transform="translate(333,52)"/>
<path d="M0 0 C4.95 0 9.9 0 15 0 C15.33 9.24 15.66 18.48 16 28 C20.18826654 23.81173346 24.12073718 19.78205597 27.9609375 15.328125 C30.55549535 12.36575627 33.21150897 9.46285087 35.875 6.5625 C36.36387695 6.02987549 36.85275391 5.49725098 37.35644531 4.94848633 C41.90095402 0.00605288 41.90095402 0.00605288 43.85766602 -0.11352539 C45.04380493 -0.10567017 45.04380493 -0.10567017 46.25390625 -0.09765625 C47.53491211 -0.09282227 47.53491211 -0.09282227 48.84179688 -0.08789062 C49.73962891 -0.07951172 50.63746094 -0.07113281 51.5625 -0.0625 C52.46419922 -0.05798828 53.36589844 -0.05347656 54.29492188 -0.04882812 C56.53001314 -0.03700225 58.76497437 -0.0205222 61 0 C59.51697601 1.73065041 58.03379303 3.46116388 56.55029297 5.19140625 C55.40906374 6.52278044 54.2687335 7.85492534 53.12890625 9.1875 C49.79782976 13.0419127 46.34516808 16.68935985 42.7109375 20.2578125 C39.97907984 23.0395671 37.50131241 26.01062664 35 29 C36.6292058 34.10886757 39.72097439 37.9969343 42.875 42.25 C44.04373793 43.84709366 45.21168628 45.44476537 46.37890625 47.04296875 C46.97590332 47.85813965 47.57290039 48.67331055 48.18798828 49.51318359 C51.09697421 53.50549438 53.95917006 57.5303011 56.8125 61.5625 C57.33376465 62.29436523 57.8550293 63.02623047 58.39208984 63.78027344 C62 68.88199787 62 68.88199787 62 70 C46.20936262 72.2090529 46.20936262 72.2090529 41.16552734 68.73730469 C37.85324874 65.29751113 35.51413926 61.23949328 33.19970703 57.08789062 C31.28762877 53.76023632 29.03979229 50.68361093 26.8125 47.5625 C25.53948597 45.70982985 24.26776853 43.85626355 23 42 C19.49360432 44.68364682 16.4840587 47.16409738 15.32861328 51.54638672 C15.0905177 54.36175365 15.02967368 57.11250547 15.0625 59.9375 C15.04638672 60.90751953 15.03027344 61.87753906 15.01367188 62.87695312 C14.97858674 65.25104722 14.98506726 67.62569363 15 70 C10.05 70 5.1 70 0 70 C0 46.9 0 23.8 0 0 Z " fill="#2E3192" transform="translate(1508,53)"/>
<path d="M0 0 C4.95 0 9.9 0 15 0 C15.48766846 1.1967334 15.97533691 2.3934668 16.4777832 3.62646484 C18.7539023 9.21017577 21.03265692 14.79280864 23.3125 20.375 C23.72095154 21.37520172 24.12940308 22.37540344 24.55023193 23.40591431 C29.94461365 36.60870943 35.38184435 49.78906169 41.0012207 62.89794922 C41.4055835 63.84299316 41.80994629 64.78803711 42.2265625 65.76171875 C42.57283691 66.56569092 42.91911133 67.36966309 43.27587891 68.19799805 C44 70 44 70 44 71 C38.39 71 32.78 71 27 71 C22.125 60.375 22.125 60.375 21 57 C11.76 57 2.52 57 -7 57 C-8.65 61.29 -10.3 65.58 -12 70 C-13 71 -13 71 -16.59765625 71.09765625 C-18.08596867 71.0909822 -19.57426432 71.07902183 -21.0625 71.0625 C-21.82111328 71.05798828 -22.57972656 71.05347656 -23.36132812 71.04882812 C-25.24091871 71.0370068 -27.12046899 71.01907078 -29 71 C-27.03328524 64.84020421 -24.7992539 58.85469646 -22.3046875 52.890625 C-21.95543716 52.04888229 -21.60618683 51.20713959 -21.24635315 50.33988953 C-20.12578379 47.64190939 -19.00057258 44.94589619 -17.875 42.25 C-17.1054052 40.4005323 -16.33595567 38.55100416 -15.56665039 36.70141602 C-10.45822902 24.43294531 -5.3006135 12.18688062 0 0 Z M6 22 C4.82905995 24.7899439 3.66309073 27.58178597 2.5 30.375 C2.16613281 31.1690625 1.83226562 31.963125 1.48828125 32.78125 C1.01455078 33.92207031 1.01455078 33.92207031 0.53125 35.0859375 C0.23798828 35.7876709 -0.05527344 36.4894043 -0.35742188 37.21240234 C-1.11275781 38.99708561 -1.11275781 38.99708561 -1 41 C4.28 41 9.56 41 15 41 C12.91923185 34.54961873 10.57778144 28.26780359 8 22 C7.34 22 6.68 22 6 22 Z " fill="#2E3192" transform="translate(1455,52)"/>
<path d="M0 0 C4.95 0 9.9 0 15 0 C15.01458252 1.22517334 15.02916504 2.45034668 15.04418945 3.71264648 C15.10250298 8.29203339 15.17973219 12.87094548 15.26245117 17.44995117 C15.2955458 19.42545826 15.32362504 21.40105639 15.34643555 23.37670898 C15.38026756 26.22939572 15.4325957 29.08125965 15.48828125 31.93359375 C15.49467117 32.80584091 15.5010611 33.67808807 15.50764465 34.57676697 C15.66960218 41.45128941 16.51757044 48.24174493 21.25 53.5 C25.2483983 55.68094453 28.59046791 56.50143117 33.12109375 55.55859375 C36.66681069 54.42006079 38.58638159 53.52035864 40.9375 50.5625 C42.49117887 46.81539213 43.12385141 43.55710116 43.20532227 39.50683594 C43.22526749 38.62622498 43.24521271 37.74561401 43.26576233 36.83831787 C43.28247482 35.89651672 43.29918732 34.95471558 43.31640625 33.984375 C43.33718735 33.01340881 43.35796844 32.04244263 43.37937927 31.04205322 C43.44468862 27.94477315 43.50367323 24.84740932 43.5625 21.75 C43.60570292 19.64842889 43.64931778 17.5468662 43.69335938 15.4453125 C43.80035098 10.29696052 43.9016709 5.14852442 44 0 C48.95 0 53.9 0 59 0 C59.0993819 6.93762097 59.17171157 13.87482128 59.21972656 20.81298828 C59.23975732 23.16983261 59.26698992 25.52662778 59.30175781 27.88330078 C59.35065172 31.28430362 59.37305502 34.6846455 59.390625 38.0859375 C59.41127014 39.12801361 59.43191528 40.17008972 59.45318604 41.2437439 C59.45566036 49.43580846 57.52131268 55.79781221 53.3125 62.8125 C44.83164285 70.83493244 35.77007233 71.44433964 24.703125 71.28125 C17.794037 71.00945267 13.41634412 69.04046837 8.1875 64.625 C0.79614803 55.75537764 -0.30684265 48.78772077 -0.1953125 37.59765625 C-0.1924826 36.51995468 -0.18965271 35.44225311 -0.18673706 34.33189392 C-0.17559193 30.90864701 -0.15049756 27.48566709 -0.125 24.0625 C-0.11496289 21.73372775 -0.10583832 19.40495138 -0.09765625 17.07617188 C-0.07567111 11.38401259 -0.04118018 5.69205148 0 0 Z " fill="#2E3192" transform="translate(1140,140)"/>
<path d="M0 0 C1.36914273 0.8915348 2.68936453 1.85782991 3.9921875 2.84375 C3.35829515 6.34219386 1.94041056 8.68461876 -0.0703125 11.59375 C-0.61816406 12.39296875 -1.16601562 13.1921875 -1.73046875 14.015625 C-2.15199219 14.61890625 -2.57351563 15.2221875 -3.0078125 15.84375 C-5.49534387 14.86902583 -7.94736594 13.87207182 -10.3671875 12.73828125 C-16.48869355 9.96759959 -20.40923335 9.56660565 -27.0078125 10.84375 C-27.9978125 13.31875 -27.9978125 13.31875 -29.0078125 15.84375 C-25.36655299 20.53418598 -20.57202595 21.62486437 -15.1328125 23.34375 C-6.6937478 26.0339322 -0.32759379 28.3566504 4.9921875 35.84375 C7.58372748 41.02682996 6.9105251 49.99432868 5.15625 55.4375 C1.78053154 61.32801543 -3.67254463 64.73199404 -10.0078125 66.84375 C-24.99441253 67.77279736 -35.7015193 65.95952274 -48.0078125 56.84375 C-46.59804545 53.80522295 -44.91911022 51.2497905 -42.8828125 48.59375 C-42.34398437 47.88734375 -41.80515625 47.1809375 -41.25 46.453125 C-40.84007812 45.92203125 -40.43015625 45.3909375 -40.0078125 44.84375 C-35.90863401 45.6635857 -32.79458694 47.58578697 -29.2265625 49.6875 C-24.41782455 52.19346203 -19.34390552 52.43120978 -14.0078125 51.84375 C-11.4888858 50.52611671 -11.4888858 50.52611671 -10.0078125 48.84375 C-9.70670432 45.95470637 -9.70670432 45.95470637 -11.0078125 42.84375 C-15.15216556 40.23060703 -20.11283607 39.11662002 -24.76171875 37.69921875 C-38.98732333 33.29170927 -38.98732333 33.29170927 -43.0078125 27.84375 C-46.27398081 21.34474163 -46.04299708 13.33749797 -44.0078125 6.46875 C-33.03748613 -7.92980336 -15.25636018 -8.78576384 0 0 Z " fill="#2E3192" transform="translate(965.0078125,144.15625)"/>
<path d="M0 0 C1.36914273 0.8915348 2.68936453 1.85782991 3.9921875 2.84375 C3.35829515 6.34219386 1.94041056 8.68461876 -0.0703125 11.59375 C-0.61816406 12.39296875 -1.16601562 13.1921875 -1.73046875 14.015625 C-2.15199219 14.61890625 -2.57351563 15.2221875 -3.0078125 15.84375 C-5.49534387 14.86902583 -7.94736594 13.87207182 -10.3671875 12.73828125 C-16.48869355 9.96759959 -20.40923335 9.56660565 -27.0078125 10.84375 C-27.9978125 13.31875 -27.9978125 13.31875 -29.0078125 15.84375 C-25.36655299 20.53418598 -20.57202595 21.62486437 -15.1328125 23.34375 C-6.6937478 26.0339322 -0.32759379 28.3566504 4.9921875 35.84375 C7.58372748 41.02682996 6.9105251 49.99432868 5.15625 55.4375 C1.78053154 61.32801543 -3.67254463 64.73199404 -10.0078125 66.84375 C-24.99441253 67.77279736 -35.7015193 65.95952274 -48.0078125 56.84375 C-46.59804545 53.80522295 -44.91911022 51.2497905 -42.8828125 48.59375 C-42.34398437 47.88734375 -41.80515625 47.1809375 -41.25 46.453125 C-40.84007812 45.92203125 -40.43015625 45.3909375 -40.0078125 44.84375 C-35.90863401 45.6635857 -32.79458694 47.58578697 -29.2265625 49.6875 C-24.41782455 52.19346203 -19.34390552 52.43120978 -14.0078125 51.84375 C-11.4888858 50.52611671 -11.4888858 50.52611671 -10.0078125 48.84375 C-9.70670432 45.95470637 -9.70670432 45.95470637 -11.0078125 42.84375 C-15.15216556 40.23060703 -20.11283607 39.11662002 -24.76171875 37.69921875 C-38.98732333 33.29170927 -38.98732333 33.29170927 -43.0078125 27.84375 C-46.27398081 21.34474163 -46.04299708 13.33749797 -44.0078125 6.46875 C-33.03748613 -7.92980336 -15.25636018 -8.78576384 0 0 Z " fill="#2E3192" transform="translate(1621.0078125,57.15625)"/>
<path d="M0 0 C3.58532704 2.17492265 6.91217375 4.59675 10.125 7.2890625 C7.3770787 11.56360675 4.43249011 15.43032403 1.125 19.2890625 C-2.87938862 18.67300271 -5.57679411 16.53464949 -8.875 14.2890625 C-13.99409374 12.58269792 -19.76244156 12.38075084 -24.9765625 13.90234375 C-29.874237 16.351181 -32.57473977 20.42239623 -34.875 25.2890625 C-37.02740943 32.39064266 -36.05496892 38.33911613 -33.140625 45.01953125 C-30.69393809 49.40695437 -27.57206053 51.45938846 -23.0625 53.6640625 C-13.39557674 55.55953765 -6.70483779 51.50895436 1.125 46.2890625 C4.095 49.5890625 7.065 52.8890625 10.125 56.2890625 C7.20408916 62.13088418 2.41223906 65.51377743 -3.5625 68.1015625 C-13.29628896 71.28266378 -23.36196215 70.95304767 -32.875 67.2890625 C-43.13135601 62.06621044 -48.93729283 54.29803114 -52.4609375 43.4921875 C-54.54484603 32.40422135 -53.20003133 21.51656844 -47.40234375 11.828125 C-37.21545497 -2.66952758 -16.00671833 -7.72546475 0 0 Z " fill="#2E3192" transform="translate(1722.875,141.7109375)"/>
<path d="M0 0 C17.16 0 34.32 0 52 0 C52 4.95 52 9.9 52 15 C39.79 15 27.58 15 15 15 C15 19.62 15 24.24 15 29 C25.89 29 36.78 29 48 29 C48 33.62 48 38.24 48 43 C37.11 43 26.22 43 15 43 C15 51.91 15 60.82 15 70 C10.05 70 5.1 70 0 70 C0 46.9 0 23.8 0 0 Z " fill="#2E3192" transform="translate(1453,140)"/>
<path d="M0 0 C12.22621345 -1.52827668 12.22621345 -1.52827668 18 0 C21.54490925 3.20583097 23.24558622 6.75273062 25.12597656 11.10839844 C26.62506528 14.35279492 28.58484754 17.30231091 30.5 20.3125 C31.66863576 22.20712017 32.83564097 24.10274852 34 26 C36.313506 22.04225382 38.62563447 18.08370463 40.9375 14.125 C41.59685547 12.99707031 42.25621094 11.86914062 42.93554688 10.70703125 C43.56396484 9.63066406 44.19238281 8.55429688 44.83984375 7.4453125 C45.42113037 6.45031738 46.00241699 5.45532227 46.60131836 4.43017578 C47.43899469 2.97473326 48.24899873 1.50200255 49 0 C55.27 0 61.54 0 68 0 C62.63771745 9.65210859 56.90517578 18.98735959 50.92529297 28.27001953 C49.77781202 30.05403127 48.63924165 31.8438137 47.51074219 33.63989258 C46.62118967 35.02956682 45.70098867 36.40173253 44.71582031 37.7253418 C40.72001774 43.4534339 41.3277575 50.19733866 41.25 56.9375 C41.20552734 58.82178711 41.20552734 58.82178711 41.16015625 60.74414062 C41.08977726 63.82908622 41.04258736 66.9145456 41 70 C36.05 70 31.1 70 26 70 C26.10183594 68.2571875 26.20367188 66.514375 26.30859375 64.71875 C26.84046332 46.31008105 22.78150696 35.34589388 11.9296875 20.65332031 C9.10336716 16.76712984 6.58135773 12.71420736 4.0625 8.625 C3.64427979 7.97047852 3.22605957 7.31595703 2.79516602 6.64160156 C0 2.2333079 0 2.2333079 0 0 Z " fill="#2E3192" transform="translate(2181,140)"/>
<path d="M0 0 C18.81 0 37.62 0 57 0 C57 4.95 57 9.9 57 15 C50.07 15 43.14 15 36 15 C36 33.15 36 51.3 36 70 C31.05 70 26.1 70 21 70 C21 51.85 21 33.7 21 15 C14.07 15 7.14 15 0 15 C0 10.05 0 5.1 0 0 Z " fill="#2E3192" transform="translate(1540,140)"/>
<path d="M0 0 C18.81 0 37.62 0 57 0 C57 4.95 57 9.9 57 15 C50.07 15 43.14 15 36 15 C36 33.15 36 51.3 36 70 C31.05 70 26.1 70 21 70 C21 51.85 21 33.7 21 15 C14.07 15 7.14 15 0 15 C0 10.05 0 5.1 0 0 Z " fill="#2E3192" transform="translate(1209,140)"/>
<path d="M0 0 C18.81 0 37.62 0 57 0 C57 4.95 57 9.9 57 15 C50.07 15 43.14 15 36 15 C36 33.15 36 51.3 36 70 C31.05 70 26.1 70 21 70 C21 51.85 21 33.7 21 15 C14.07 15 7.14 15 0 15 C0 10.05 0 5.1 0 0 Z " fill="#2E3192" transform="translate(1073,140)"/>
<path d="M0 0 C18.81 0 37.62 0 57 0 C57 4.95 57 9.9 57 15 C50.07 15 43.14 15 36 15 C36 33.15 36 51.3 36 70 C31.05 70 26.1 70 21 70 C21 51.85 21 33.7 21 15 C14.07 15 7.14 15 0 15 C0 10.05 0 5.1 0 0 Z " fill="#2E3192" transform="translate(978,140)"/>
<path d="M0 0 C18.81 0 37.62 0 57 0 C57 4.95 57 9.9 57 15 C50.07 15 43.14 15 36 15 C36 33.15 36 51.3 36 70 C31.05 70 26.1 70 21 70 C21 51.85 21 33.7 21 15 C14.07 15 7.14 15 0 15 C0 10.05 0 5.1 0 0 Z " fill="#2E3192" transform="translate(980,53)"/>
<path d="M0 0 C18.81 0 37.62 0 57 0 C57 4.95 57 9.9 57 15 C50.07 15 43.14 15 36 15 C36 33.15 36 51.3 36 70 C31.05 70 26.1 70 21 70 C21 51.85 21 33.7 21 15 C14.07 15 7.14 15 0 15 C0 10.05 0 5.1 0 0 Z " fill="#2E3192" transform="translate(917,53)"/>
<path d="M0 0 C5.62539022 5.62539022 5.62539022 5.62539022 8.12109375 8.92578125 C8.66443359 9.64056641 9.20777344 10.35535156 9.76757812 11.09179688 C10.31865234 11.82462891 10.86972656 12.55746094 11.4375 13.3125 C11.98470703 14.03373047 12.53191406 14.75496094 13.09570312 15.49804688 C14.73542428 17.6617026 16.36931537 19.82952395 18 22 C18.50110291 22.54353119 19.00220581 23.08706238 19.51849365 23.64706421 C24.5073455 29.41135415 24.80971791 34.05317024 24.5859375 41.5 C24.57744781 42.57628662 24.56895813 43.65257324 24.56021118 44.76147461 C24.52681281 48.17536504 24.45155434 51.58683206 24.375 55 C24.34488308 57.32418447 24.31751032 59.64840622 24.29296875 61.97265625 C24.23218235 67.65010608 24.11474265 73.3223638 24 79 C16.08 79 8.16 79 0 79 C0 52.93 0 26.86 0 0 Z " fill="#2E3192" transform="translate(42,78)"/>
<path d="M0 0 C4.95 0 9.9 0 15 0 C15 18.48 15 36.96 15 56 C26.22 56 37.44 56 49 56 C49 60.62 49 65.24 49 70 C32.83 70 16.66 70 0 70 C0 46.9 0 23.8 0 0 Z " fill="#2E3192" transform="translate(1977,140)"/>
<path d="M0 0 C2.64 0 5.28 0 8 0 C8 52.47 8 104.94 8 159 C5.36 159 2.72 159 0 159 C0 106.53 0 54.06 0 0 Z " fill="#2E3192" transform="translate(728,52)"/>
<path d="M0 0 C5.28 0 10.56 0 16 0 C16 23.1 16 46.2 16 70 C10.72 70 5.44 70 0 70 C0 46.9 0 23.8 0 0 Z " fill="#2E3192" transform="translate(1045,140)"/>
<path d="M0 0 C5.28 0 10.56 0 16 0 C16 23.1 16 46.2 16 70 C10.72 70 5.44 70 0 70 C0 46.9 0 23.8 0 0 Z " fill="#2E3192" transform="translate(813,140)"/>
<path d="M0 0 C5.28 0 10.56 0 16 0 C16 23.1 16 46.2 16 70 C10.72 70 5.44 70 0 70 C0 46.9 0 23.8 0 0 Z " fill="#2E3192" transform="translate(1713,53)"/>
<path d="M0 0 C5.28 0 10.56 0 16 0 C16 23.1 16 46.2 16 70 C10.72 70 5.44 70 0 70 C0 46.9 0 23.8 0 0 Z " fill="#2E3192" transform="translate(890,53)"/>
<path d="M0 0 C13.88888889 0 13.88888889 0 19 4 C21.64930485 7.34042786 21.3625472 10.86696196 21 15 C19.32375739 18.68773373 17.42746406 20.85783496 14 23 C11 24 11 24 0 24 C0 16.08 0 8.16 0 0 Z M4 3 C4 8.61 4 14.22 4 20 C11.52469407 20.77068979 11.52469407 20.77068979 15 17.875 C17.18293783 15.15610238 17.18293783 15.15610238 17.5625 12 C16.83463003 8.11802683 16.02042858 6.57841464 13 4 C9.93827538 3.28331403 7.16797884 3.13976377 4 3 Z " fill="#2E3192" transform="translate(242,182)"/>
<path d="M0 0 C1.93875 -0.020625 3.8775 -0.04125 5.875 -0.0625 C6.96554687 -0.07410156 8.05609375 -0.08570313 9.1796875 -0.09765625 C12 0 12 0 14 1 C14.66 0.67 15.32 0.34 16 0 C22.2488516 -0.45446193 22.2488516 -0.45446193 24.7109375 1.03515625 C26.70205843 4.07010724 26.31486354 7.18990137 26.1875 10.6875 C26.16719727 11.7403418 26.16719727 11.7403418 26.14648438 12.81445312 C26.11120182 14.54329829 26.05739583 16.27174765 26 18 C25.01 18 24.02 18 23 18 C22.93941406 17.24074219 22.87882812 16.48148438 22.81640625 15.69921875 C22.69072266 14.20841797 22.69072266 14.20841797 22.5625 12.6875 C22.48128906 11.70136719 22.40007812 10.71523437 22.31640625 9.69921875 C22.08187441 6.90624401 22.08187441 6.90624401 21 4 C19.35 4.33 17.7 4.66 16 5 C15.67 9.29 15.34 13.58 15 18 C13.68 18 12.36 18 11 18 C10.67 13.71 10.34 9.42 10 5 C8.68 4.67 7.36 4.34 6 4 C3.81005752 7.28491373 3.64722661 8.83095639 3.375 12.6875 C3.30023438 13.68136719 3.22546875 14.67523438 3.1484375 15.69921875 C3.09945313 16.45847656 3.05046875 17.21773437 3 18 C2.01 18 1.02 18 0 18 C0 12.06 0 6.12 0 0 Z " fill="#2E3192" transform="translate(305,188)"/>
<path d="M0 0 C1.32 0 2.64 0 4 0 C4.06058594 1.20398438 4.12117188 2.40796875 4.18359375 3.6484375 C4.26799732 5.22397077 4.35264541 6.79949096 4.4375 8.375 C4.47681641 9.1690625 4.51613281 9.963125 4.55664062 10.78125 C4.68893404 15.02601221 4.68893404 15.02601221 6 19 C9.28414305 19.95067299 10.69693408 20.10102197 14 19 C15.6498007 15.70039859 15.38258361 12.00872116 15.5625 8.375 C15.60568359 7.57320312 15.64886719 6.77140625 15.69335938 5.9453125 C15.79951457 3.9637489 15.90026855 1.98189729 16 0 C17.32 0 18.64 0 20 0 C20.08126109 2.72977064 20.14061663 5.4571017 20.1875 8.1875 C20.21263672 8.95642578 20.23777344 9.72535156 20.26367188 10.51757812 C20.32380764 15.18812274 20.05424203 18.21957455 17 22 C13.31502204 24.45665197 10.28028214 24.70086491 6 24 C3.1899654 22.20636089 1.49059532 20.98119065 0 18 C-0.08308638 16.62451844 -0.10736016 15.24514204 -0.09765625 13.8671875 C-0.09443359 13.06152344 -0.09121094 12.25585938 -0.08789062 11.42578125 C-0.07951172 10.58402344 -0.07113281 9.74226562 -0.0625 8.875 C-0.05798828 8.02550781 -0.05347656 7.17601562 -0.04882812 6.30078125 C-0.03702874 4.20049091 -0.01909306 2.1002367 0 0 Z " fill="#2E3192" transform="translate(479,182)"/>
<path d="M0 0 C0.99 0 1.98 0 3 0 C3.33 2.64 3.66 5.28 4 8 C4.33 7.67 4.66 7.34 5 7 C12.22962963 6.40740741 12.22962963 6.40740741 15.4375 8.875 C18.04191134 12.41699942 18.43241556 14.58936125 18 19 C16.20006226 21.69990662 14.916227 23.5418865 12 25 C10.00045254 25.04254356 7.99958364 25.04080783 6 25 C5.01 25 4.02 25 3 25 C2.01 25 1.02 25 0 25 C0 16.75 0 8.5 0 0 Z M4 12 C2.82221688 14.30371421 2.82221688 14.30371421 3 17 C5.333492 19.83411155 5.333492 19.83411155 8 22 C11.24983135 20.91215032 11.24983135 20.91215032 14 19 C14.40153823 14.83041276 14.40153823 14.83041276 12.75 11.125 C9.28774614 8.89926538 7.19240645 9.87172903 4 12 Z " fill="#2E3192" transform="translate(429,181)"/>
<path d="M0 0 C0.99 0 1.98 0 3 0 C3 8.25 3 16.5 3 25 C1.68 24.67 0.36 24.34 -1 24 C-1.66 24.33 -2.32 24.66 -3 25 C-6.57953446 25.39772605 -8.60701525 25.18794923 -11.875 23.625 C-14.68955726 20.14819397 -14.66188228 17.72772274 -14.41015625 13.3515625 C-14 11 -14 11 -12.5 8.375 C-8.81595814 6.34877697 -6.17539805 6.65775426 -2 7 C-1.67 7.33 -1.34 7.66 -1 8 C-0.67 5.36 -0.34 2.72 0 0 Z M-9.8125 11.625 C-11.42024932 14.84049864 -11.03278981 16.60654776 -10 20 C-7.24301816 22.28138945 -7.24301816 22.28138945 -4.4375 21.8125 C-1.66744883 21.16627558 -1.66744883 21.16627558 0 18 C-0.08221709 14.92334973 -0.08221709 14.92334973 -1 12 C-4.35611603 9.76258931 -6.55697452 8.70625302 -9.8125 11.625 Z " fill="#2E3192" transform="translate(368,181)"/>
<path d="M0 0 C2.5 2.1875 2.5 2.1875 4 5 C4 6.65 4 8.3 4 10 C-1.94 10.495 -1.94 10.495 -8 11 C-5.46571562 14.21525355 -5.46571562 14.21525355 -2.95703125 14.07421875 C-2.24933594 13.94660156 -1.54164063 13.81898438 -0.8125 13.6875 C0.445625 13.460625 1.70375 13.23375 3 13 C3 13.99 3 14.98 3 16 C-0.7373856 18.4915904 -2.57331583 18.45793285 -7 18 C-10.3961581 16.08043238 -11.69036087 14.87086006 -13 11.1875 C-13 6.98996399 -11.96151238 4.70507894 -10 1 C-6.78697738 -0.60651131 -3.47534141 -0.61127547 0 0 Z M-6 3 C-7.77409808 4.92022703 -7.77409808 4.92022703 -9 7 C-6.03 7 -3.06 7 0 7 C-0.66 5.68 -1.32 4.36 -2 3 C-3.32 3 -4.64 3 -6 3 Z " fill="#2E3192" transform="translate(347,188)"/>
<path d="M0 0 C3.03379359 0.66656245 4.21477419 1.85286302 5.90234375 4.41796875 C6.23234375 6.39796875 6.56234375 8.37796875 6.90234375 10.41796875 C2.61234375 10.41796875 -1.67765625 10.41796875 -6.09765625 10.41796875 C-5.76765625 11.40796875 -5.43765625 12.39796875 -5.09765625 13.41796875 C-1.07960934 14.25895531 1.92037918 14.4720182 5.90234375 13.41796875 C4.15234375 17.29296875 4.15234375 17.29296875 1.90234375 18.41796875 C-2.39088484 18.90399463 -4.41848264 18.88038483 -8.03515625 16.41796875 C-10.34104488 13.06394892 -10.80133882 11.32936351 -10.5078125 7.35546875 C-9.22062693 1.27504928 -5.73761666 -0.39532927 0 0 Z M-4.09765625 3.41796875 C-4.75765625 4.73796875 -5.41765625 6.05796875 -6.09765625 7.41796875 C-3.12765625 7.41796875 -0.15765625 7.41796875 2.90234375 7.41796875 C2.57234375 6.42796875 2.24234375 5.43796875 1.90234375 4.41796875 C-1.06765625 3.92296875 -1.06765625 3.92296875 -4.09765625 3.41796875 Z " fill="#2E3192" transform="translate(295.09765625,187.58203125)"/>
<path d="M0 0 C2.5 2.1875 2.5 2.1875 4 5 C4 6.65 4 8.3 4 10 C-0.29 10 -4.58 10 -9 10 C-8.01 11.32 -7.02 12.64 -6 14 C-3.70154505 14.2677441 -3.70154505 14.2677441 -1.3125 13.75 C-0.10013672 13.55664062 -0.10013672 13.55664062 1.13671875 13.359375 C1.75160156 13.24078125 2.36648438 13.1221875 3 13 C2.625 14.9375 2.625 14.9375 2 17 C-1.10048928 18.55024464 -3.57894218 18.28992015 -7 18 C-9.94855414 16.46162393 -11.54706386 15.3392371 -12.6328125 12.12890625 C-13.27866586 8.49426342 -13.2159351 6.48328331 -11.6875 3.0625 C-8.58640691 -0.72772489 -4.63524741 -0.81529055 0 0 Z M-7.75 4.4375 C-9.10411584 5.79664875 -9.10411584 5.79664875 -9 7 C-6.03 7 -3.06 7 0 7 C-0.66 5.68 -1.32 4.36 -2 3 C-5.86230064 2.57684038 -5.86230064 2.57684038 -7.75 4.4375 Z " fill="#2E3192" transform="translate(462,188)"/>
<path d="M0 0 C2.5 2.1875 2.5 2.1875 4 5 C4 6.65 4 8.3 4 10 C-1.94 10.495 -1.94 10.495 -8 11 C-5.46571562 14.21525355 -5.46571562 14.21525355 -2.95703125 14.07421875 C-2.24933594 13.94660156 -1.54164063 13.81898438 -0.8125 13.6875 C0.445625 13.460625 1.70375 13.23375 3 13 C3 13.99 3 14.98 3 16 C-0.7373856 18.4915904 -2.57331583 18.45793285 -7 18 C-10.3961581 16.08043238 -11.69036087 14.87086006 -13 11.1875 C-13 6.98996399 -11.96151238 4.70507894 -10 1 C-6.78697738 -0.60651131 -3.47534141 -0.61127547 0 0 Z M-6 3 C-7.77409808 4.92022703 -7.77409808 4.92022703 -9 7 C-6.03 7 -3.06 7 0 7 C-0.66 5.68 -1.32 4.36 -2 3 C-3.32 3 -4.64 3 -6 3 Z " fill="#2E3192" transform="translate(562,188)"/>
<path d="M0 0 C3.03379359 0.66656245 4.21477419 1.85286302 5.90234375 4.41796875 C6.23234375 6.39796875 6.56234375 8.37796875 6.90234375 10.41796875 C2.61234375 10.41796875 -1.67765625 10.41796875 -6.09765625 10.41796875 C-5.76765625 11.40796875 -5.43765625 12.39796875 -5.09765625 13.41796875 C-1.43460391 14.16722946 1.32589527 14.65597015 4.90234375 13.41796875 C4.90234375 14.40796875 4.90234375 15.39796875 4.90234375 16.41796875 C1.15186893 18.91828529 -0.65621891 18.95400429 -5.09765625 18.41796875 C-8.01133849 16.4341851 -9.73324394 15.00348194 -10.54296875 11.48046875 C-10.74872418 7.85917326 -10.23476021 5.69217667 -8.59765625 2.41796875 C-5.55374558 -0.01715979 -3.81409797 -0.26279632 0 0 Z M-4.09765625 3.41796875 C-4.75765625 4.73796875 -5.41765625 6.05796875 -6.09765625 7.41796875 C-3.12765625 7.41796875 -0.15765625 7.41796875 2.90234375 7.41796875 C2.57234375 6.42796875 2.24234375 5.43796875 1.90234375 4.41796875 C-1.06765625 3.92296875 -1.06765625 3.92296875 -4.09765625 3.41796875 Z " fill="#2E3192" transform="translate(276.09765625,187.58203125)"/>
<path d="M0 0 C12.40083113 -0.49112202 12.40083113 -0.49112202 14.90625 1.5625 C16.40400919 4.90036334 16.2886773 7.60761705 16.1875 11.25 C16.16042969 12.51328125 16.13335938 13.7765625 16.10546875 15.078125 C16.07066406 16.04234375 16.03585937 17.0065625 16 18 C14.68 18 13.36 18 12 18 C11.67 13.71 11.34 9.42 11 5 C7.25308553 3.60229416 7.25308553 3.60229416 5 5 C4.53045739 8.04581269 4.53045739 8.04581269 4.375 11.5625 C4.26285156 13.35880859 4.26285156 13.35880859 4.1484375 15.19140625 C4.09945313 16.11824219 4.05046875 17.04507813 4 18 C2.68 18 1.36 18 0 18 C0 12.06 0 6.12 0 0 Z " fill="#2E3192" transform="translate(503,188)"/>
<path d="M0 0 C2.50160818 1.87620613 3.61945652 3.23891303 5 6 C5.43023798 9.87214182 5.31669086 11.52496371 3.125 14.8125 C0.42055063 17.59649199 -0.42266704 17.93464155 -4.3125 18.375 C-8 18 -8 18 -10.9375 16.0625 C-13.69990204 11.96075152 -13.93339724 8.81058577 -13 4 C-10.16423745 -1.05505498 -5.249396 -0.98426175 0 0 Z M-8.875 4.625 C-10.39781243 7.83982625 -10.02316469 9.63817316 -9 13 C-6.24104365 15.29637779 -6.24104365 15.29637779 -3.4375 14.75 C-0.84999433 14.16191948 -0.84999433 14.16191948 1 12 C1.333728 8.86295684 1.52849028 6.83445834 -0.1875 4.125 C-3.46153489 2.09284041 -5.94627837 2.08677459 -8.875 4.625 Z " fill="#2E3192" transform="translate(411,188)"/>
<path d="M0 0 C2.25 -0.0625 2.25 -0.0625 5 1 C6.69300427 3.86674844 7.86963623 6.87413371 9 10 C11.09782787 7.90217213 11.6509396 6.6200793 12.625 3.875 C12.88539063 3.15054688 13.14578125 2.42609375 13.4140625 1.6796875 C13.70410156 0.84824219 13.70410156 0.84824219 14 0 C15.32 0 16.64 0 18 0 C17.29702301 4.4407571 15.78792447 8.47174475 14.125 12.625 C13.86847656 13.29273438 13.61195313 13.96046875 13.34765625 14.6484375 C10.80327891 21.04134538 10.80327891 21.04134538 8 23 C4.8125 23.1875 4.8125 23.1875 2 23 C2 21.68 2 20.36 2 19 C3.32 19 4.64 19 6 19 C5.60659167 13.09887507 3.61290255 8.56903816 1.05859375 3.2578125 C0 1 0 1 0 0 Z " fill="#2E3192" transform="translate(618,188)"/>
<path d="M0 0 C2.82405426 0.05637858 3.75432284 0.08136713 6.0625 1.8125 C6.5575 2.555 6.5575 2.555 7.0625 3.3125 C3.73715243 4.42094919 1.44067425 4.15704356 -1.9375 3.3125 C-1.9375 4.3025 -1.9375 5.2925 -1.9375 6.3125 C-0.82375 6.60125 0.29 6.89 1.4375 7.1875 C5.0625 8.3125 5.0625 8.3125 7.0625 10.3125 C7.41821424 13.08707104 7.42655327 14.69146796 6 17.125 C2.99182949 18.96871741 0.51182782 18.61507262 -2.9375 18.3125 C-5.375 17.3125 -5.375 17.3125 -6.9375 16.3125 C-6.6075 15.3225 -6.2775 14.3325 -5.9375 13.3125 C-3.2975 13.6425 -0.6575 13.9725 2.0625 14.3125 C2.3925 13.6525 2.7225 12.9925 3.0625 12.3125 C0.4225 11.3225 -2.2175 10.3325 -4.9375 9.3125 C-5.5625 5.9375 -5.5625 5.9375 -5.9375 2.3125 C-3.9375 0.3125 -3.9375 0.3125 0 0 Z " fill="#2E3192" transform="translate(587.9375,187.6875)"/>
<path d="M0 0 C1.32 0 2.64 0 4 0 C5.65 3.63 7.3 7.26 9 11 C10.65 7.37 12.3 3.74 14 0 C15.32 0.33 16.64 0.66 18 1 C15.69 6.61 13.38 12.22 11 18 C9.68 18 8.36 18 7 18 C5.82887054 15.37690901 4.66294036 12.75171858 3.5 10.125 C3.16613281 9.37863281 2.83226562 8.63226563 2.48828125 7.86328125 C2.17246094 7.14785156 1.85664062 6.43242187 1.53125 5.6953125 C1.23798828 5.03547363 0.94472656 4.37563477 0.64257812 3.69580078 C0 2 0 2 0 0 Z " fill="#2E3192" transform="translate(530,188)"/>
<path d="M0 0 C1.32 0 2.64 0 4 0 C4 1.65 4 3.3 4 5 C5.65 5 7.3 5 9 5 C9 5.99 9 6.98 9 8 C7.35 8 5.7 8 4 8 C4 11.63 4 15.26 4 19 C5.65 19 7.3 19 9 19 C8.67 20.32 8.34 21.64 8 23 C5.69 22.67 3.38 22.34 1 22 C-0.04976964 18.85069107 -0.10131595 16.61185544 -0.0625 13.3125 C-0.05347656 12.31863281 -0.04445313 11.32476562 -0.03515625 10.30078125 C-0.02355469 9.54152344 -0.01195312 8.78226563 0 8 C-0.66 8 -1.32 8 -2 8 C-2 7.01 -2 6.02 -2 5 C-1.34 5 -0.68 5 0 5 C0 3.35 0 1.7 0 0 Z " fill="#2E3192" transform="translate(386,183)"/>
<path d="M0 0 C0 3 0 3 -2.4375 5.5625 C-3.283125 6.366875 -4.12875 7.17125 -5 8 C-6.59561887 11.19123774 -6.3799142 14.52745091 -6 18 C-4.36312815 21.58552881 -3.31027417 22.79315055 0 25 C0 25.99 0 26.98 0 28 C-4.26672384 27.52591957 -6.2455048 25.11692878 -9 22 C-11.6202773 18.38152182 -11.53191436 14.30518184 -11 10 C-9.06276575 4.69809574 -6.07806487 0 0 0 Z " fill="#2E3192" transform="translate(238,182)"/>
<path d="M0 0 C4.42741644 1.35282169 6.36309221 3.23298888 9 7 C10.85490641 10.70981281 10.4540091 14.95123393 10 19 C8.02490644 22.87964806 5.86417157 25.88093817 2 28 C1.01 27.67 0.02 27.34 -1 27 C-1 25 -1 25 1.4375 22.4375 C2.283125 21.633125 3.12875 20.82875 4 20 C5.64037395 18.35962605 5.24911331 16.50523159 5.3125 14.25 C5.28579825 10.51709524 5.12968057 9.2118116 3.125 5.9375 C1.15328837 3.96324724 1.15328837 3.96324724 -1 3 C-0.67 2.01 -0.34 1.02 0 0 Z " fill="#2E3192" transform="translate(639,182)"/>
<path d="M0 0 C0.99 0 1.98 0 3 0 C3 1.65 3 3.3 3 5 C4.98 5 6.96 5 9 5 C9 5.99 9 6.98 9 8 C7.02 8 5.04 8 3 8 C3.33 11.3 3.66 14.6 4 18 C5.65 18.33 7.3 18.66 9 19 C8.67 20.32 8.34 21.64 8 23 C5.125 23.125 5.125 23.125 2 23 C0 21 0 21 -0.1953125 17.9609375 C-0.17210937 16.77757812 -0.14890625 15.59421875 -0.125 14.375 C-0.10695313 13.18648437 -0.08890625 11.99796875 -0.0703125 10.7734375 C-0.04710937 9.85820312 -0.02390625 8.94296875 0 8 C-0.66 8 -1.32 8 -2 8 C-2 7.01 -2 6.02 -2 5 C-1.34 5 -0.68 5 0 5 C0 3.35 0 1.7 0 0 Z " fill="#2E3192" transform="translate(608,183)"/>
<path d="M0 0 C1.32 0.33 2.64 0.66 4 1 C6.00946222 0.72949547 8.01354224 0.40632091 10 0 C9.75 1.875 9.75 1.875 9 4 C7 5.125 7 5.125 5 6 C3.78306124 8.43387753 3.68040104 10.41838846 3.4375 13.125 C3.31181641 14.49011719 3.31181641 14.49011719 3.18359375 15.8828125 C3.12300781 16.58148438 3.06242188 17.28015625 3 18 C2.01 18 1.02 18 0 18 C0 12.06 0 6.12 0 0 Z " fill="#2E3192" transform="translate(570,188)"/>
<path d="M0 0 C1.32 0 2.64 0 4 0 C4 5.94 4 11.88 4 18 C2.68 18 1.36 18 0 18 C0 12.06 0 6.12 0 0 Z " fill="#2E3192" transform="translate(523,188)"/>
<path d="M0 0 C0.99 0 1.98 0 3 0 C3 5.94 3 11.88 3 18 C2.01 18 1.02 18 0 18 C0 12.06 0 6.12 0 0 Z " fill="#2E3192" transform="translate(599,188)"/>
<path d="M0 0 C1.32 0 2.64 0 4 0 C4 0.99 4 1.98 4 3 C2.68 3 1.36 3 0 3 C0 2.01 0 1.02 0 0 Z " fill="#2E3192" transform="translate(523,182)"/>
<path d="M0 0 C0.99 0 1.98 0 3 0 C3 0.99 3 1.98 3 3 C2.01 3 1.02 3 0 3 C0 2.01 0 1.02 0 0 Z " fill="#2E3192" transform="translate(599,182)"/>
</svg>
